<svg xmlns="http://www.w3.org/2000/svg" viewBox="0 0 274.45 36.7"><defs><style>.cls-1{fill:#0082bc;}</style></defs><title>cult-of-mac</title><g id="Layer_2" data-name="Layer 2"><g id="Layer_1-2" data-name="Layer 1"><path class="cls-1" d="M18,0c4.55,0,13.45,1.9,13.45,8v4h-6v-2c0-2.6-4.25-3.8-7.35-3.8-6.35,0-11.35,4.55-11.35,12,0,7,5.1,12.55,11.55,12.55A15.14,15.14,0,0,0,29.1,25.9l3.45,4.7a19.67,19.67,0,0,1-14.3,6.1C7.4,36.7,0,28.55,0,18.05A17.63,17.63,0,0,1,18,0Z"/><path class="cls-1" d="M38.3,17.1A1,1,0,0,0,37.2,16h-2V10.6h6c2.35,0,3.35,1.05,3.35,3.35V25.7c0,3.1.8,5.2,4,5.2,4.6,0,7.15-4.05,7.15-8.6V10.6h6.35V29.65a1,1,0,0,0,1.1,1.1h2V36.1H59.3c-2.2,0-3.35-1-3.35-2.85v-.7c0-.6,0-1.15,0-1.15h-.1a9.63,9.63,0,0,1-8.8,5.3c-5.45,0-8.8-2.75-8.8-9.7Z"/><path class="cls-1" d="M70.45,7.1A1,1,0,0,0,69.35,6h-2V.6h6c2.35,0,3.4,1,3.4,3.4V29.65a1,1,0,0,0,1.1,1.1h1.95V36.1h-6c-2.4,0-3.4-1-3.4-3.4Z"/><path class="cls-1" d="M85.55,15.65h-3.3V10.6H85.7v-7h6.2v7h5.8v5.05H91.9V26c0,4.2,3.3,4.8,5.05,4.8a5.86,5.86,0,0,0,1.15-.1V36.2a11.65,11.65,0,0,1-2,.15c-3.55,0-10.6-1-10.6-9.6Z"/><path class="cls-1" d="M129.2,10c7.8,0,14,5.55,14,13.35S137,36.7,129.2,36.7s-14-5.5-14-13.35S121.45,10,129.2,10Zm0,21.3a7.59,7.59,0,0,0,7.6-8,7.58,7.58,0,1,0-15.15,0A7.58,7.58,0,0,0,129.2,31.3Z"/><path class="cls-1" d="M149.25,15.65H146.1V10.6h3.15V9.85c0-8.35,6.85-9.45,10.4-9.45a13.63,13.63,0,0,1,2.15.15V6a8,8,0,0,0-1.3-.1c-1.8,0-4.9.45-4.9,4.15v.6H161v5.05H155.6V36.1h-6.35Z"/><path class="cls-1" d="M177.1,30.55h1.55c.7,0,1-.4,1.1-1.1L182,.6h6.8l7.3,16.9c.85,2.05,1.75,4.75,1.75,4.75h.1s.9-2.7,1.75-4.75L207,.6h6.8l2.3,28.85c0,.7.4,1.1,1.1,1.1h1.55V36.1h-5.65c-2.35,0-3.15-1-3.35-3.4l-1.2-15.8a50.73,50.73,0,0,1-.05-5.5h-.1a58,58,0,0,1-2,5.5L200.6,30h-5.3l-5.9-13.1a57.09,57.09,0,0,1-2-5.55h-.1a51.6,51.6,0,0,1,0,5.55l-1.15,15.8c-.2,2.4-1,3.4-3.4,3.4H177.1Z"/><path class="cls-1" d="M236.8,20.1h.8v-.2c0-3.65-1.45-5-4.7-5-1.15,0-3.4.3-3.4,1.7V18h-5.9v-2.7c0-4.75,6.7-5.25,9.35-5.25,8.5,0,11,4.45,11,10.15v9.5a1,1,0,0,0,1.1,1.1h2V36.1h-5.7c-2.35,0-3.25-1.3-3.25-2.8,0-.65,0-1.1,0-1.1H238a8.3,8.3,0,0,1-7.7,4.5c-4.55,0-8.7-2.85-8.7-8C221.65,20.75,232.65,20.1,236.8,20.1Zm-4.9,11.65c3.4,0,5.8-3.6,5.8-6.7v-.6h-1.1c-3.3,0-8.55.45-8.55,4C228,30.15,229.3,31.75,231.9,31.75Z"/><path class="cls-1" d="M263.85,10c3.3,0,9.25,1.35,9.25,5.75v3h-5.6v-1.4c0-1.4-2.1-2-3.65-2-4.4,0-7.55,3.35-7.55,8,0,5.2,3.85,7.85,8,7.85,4.35,0,7.55-3.45,7.55-3.45l2.65,4.4a14.58,14.58,0,0,1-10.75,4.6c-8.4,0-13.8-6-13.8-13.35C249.9,16.15,255.1,10,263.85,10Z"/></g></g></svg>