<svg xmlns="http://www.w3.org/2000/svg" viewBox="0 0 13.17 24.45"><defs><style>.cls-1{fill:#09f;}</style></defs><title>left-arrow-blue</title><g id="Layer_2" data-name="Layer 2"><g id="Layer_1-2" data-name="Layer 1"><path class="cls-1" d="M8.47,6.58a.93.93,0,1,1,1.87,0,.93.93,0,0,1-1.87,0Z"/><path class="cls-1" d="M8.47,17.88a.94.94,0,0,1,.93-.94.94.94,0,1,1,0,1.87A.94.94,0,0,1,8.47,17.88Z"/><circle class="cls-1" cx="3.76" cy="15.05" r="0.93" transform="translate(-11.3 18.76) rotate(-89.82)"/><circle class="cls-1" cx="3.76" cy="9.4" r="0.93" transform="translate(-5.65 13.13) rotate(-89.82)"/><ellipse class="cls-1" cx="12.23" cy="23.52" rx="0.94" ry="0.93" transform="translate(-0.3 0.16) rotate(-0.74)"/><ellipse class="cls-1" cx="12.23" cy="3.75" rx="0.94" ry="0.93" transform="translate(-0.03 0.09) rotate(-0.42)"/><ellipse class="cls-1" cx="9.41" cy="3.75" rx="0.93" ry="0.93" transform="matrix(1, 0, 0, 1, -0.02, 0.04)"/><ellipse class="cls-1" cx="12.23" cy="0.93" rx="0.93" ry="0.94" transform="translate(11.07 13.14) rotate(-88.9)"/><ellipse class="cls-1" cx="12.23" cy="20.7" rx="0.94" ry="0.93" transform="translate(-0.14 0.08) rotate(-0.38)"/><ellipse class="cls-1" cx="9.41" cy="20.7" rx="0.93" ry="0.93" transform="translate(-11.41 29.83) rotate(-89.24)"/><ellipse class="cls-1" cx="6.58" cy="15.05" rx="0.93" ry="0.93" transform="translate(-0.07 0.03) rotate(-0.28)"/><ellipse class="cls-1" cx="0.94" cy="12.22" rx="0.94" ry="0.93" transform="translate(-0.18 0.02) rotate(-0.84)"/><ellipse class="cls-1" cx="6.58" cy="6.58" rx="0.93" ry="0.94" transform="translate(-0.1 0.1) rotate(-0.9)"/><ellipse class="cls-1" cx="6.58" cy="17.87" rx="0.94" ry="0.93" transform="translate(-11.37 24.23) rotate(-89.29)"/><ellipse class="cls-1" cx="3.76" cy="12.22" rx="0.93" ry="0.93" transform="translate(-8.51 15.83) rotate(-89.29)"/><path class="cls-1" d="M7.51,9.45a.93.93,0,1,1-.91-1A.92.92,0,0,1,7.51,9.45Z"/></g></g></svg>