<svg xmlns="http://www.w3.org/2000/svg" viewBox="0 0 8.44 15.68"><defs><style>.cls-1{fill:#fff;}</style></defs><title>left-arrow-white</title><g id="Layer_2" data-name="Layer 2"><g id="Layer_1-2" data-name="Layer 1"><path class="cls-1" d="M5.43,4.22a.6.6,0,1,1,1.2,0,.6.6,0,0,1-1.2,0Z"/><circle class="cls-1" cx="6.03" cy="11.46" r="0.6" transform="translate(-0.06 0.03) rotate(-0.3)"/><circle class="cls-1" cx="2.41" cy="9.65" r="0.6" transform="translate(-7.25 12.03) rotate(-89.82)"/><circle class="cls-1" cx="2.41" cy="6.03" r="0.6" transform="translate(-3.63 8.42) rotate(-89.82)"/><ellipse class="cls-1" cx="7.84" cy="15.08" rx="0.6" ry="0.6" transform="translate(-0.2 0.1) rotate(-0.74)"/><ellipse class="cls-1" cx="7.84" cy="2.41" rx="0.6" ry="0.6" transform="translate(-0.02 0.06) rotate(-0.42)"/><ellipse class="cls-1" cx="6.03" cy="2.41" rx="0.6" ry="0.59" transform="translate(-0.01 0.03) rotate(-0.24)"/><ellipse class="cls-1" cx="7.84" cy="0.6" rx="0.6" ry="0.6" transform="translate(7.1 8.43) rotate(-88.9)"/><ellipse class="cls-1" cx="7.84" cy="13.27" rx="0.6" ry="0.59" transform="translate(-0.09 0.05) rotate(-0.38)"/><ellipse class="cls-1" cx="6.03" cy="13.27" rx="0.59" ry="0.6" transform="translate(-7.32 19.13) rotate(-89.24)"/><ellipse class="cls-1" cx="4.22" cy="9.65" rx="0.59" ry="0.6" transform="translate(-0.05 0.02) rotate(-0.28)"/><ellipse class="cls-1" cx="0.6" cy="7.84" rx="0.6" ry="0.59" transform="translate(-0.11 0.01) rotate(-0.84)"/><ellipse class="cls-1" cx="4.22" cy="4.22" rx="0.59" ry="0.6" transform="translate(-0.07 0.07) rotate(-0.9)"/><ellipse class="cls-1" cx="4.22" cy="11.46" rx="0.6" ry="0.59" transform="translate(-7.29 15.54) rotate(-89.29)"/><ellipse class="cls-1" cx="2.41" cy="7.84" rx="0.59" ry="0.6" transform="translate(-5.46 10.15) rotate(-89.29)"/><path class="cls-1" d="M4.81,6.06a.59.59,0,1,1-.59-.63A.59.59,0,0,1,4.81,6.06Z"/></g></g></svg>