<svg xmlns="http://www.w3.org/2000/svg" xmlns:xlink="http://www.w3.org/1999/xlink" viewBox="0 0 166.09 122.03"><defs><style>.cls-1{fill:none;}.cls-2{fill:#fff;}.cls-3,.cls-6{fill:#272727;}.cls-4{clip-path:url(#clip-path);}.cls-5{fill:#d3d3d3;}.cls-6{fill-rule:evenodd;}</style><clipPath id="clip-path"><circle class="cls-1" cx="74.86" cy="48.99" r="37.44"/></clipPath></defs><title>made-in-usa</title><g id="Layer_2" data-name="Layer 2"><g id="Layer_1-2" data-name="Layer 1"><circle class="cls-2" cx="74.86" cy="48.99" r="43.76"/><circle class="cls-3" cx="74.86" cy="48.99" r="41.8"/><g class="cls-4"><rect class="cls-5" width="155.38" height="27.54"/></g><g class="cls-4"><rect class="cls-5" x="10.71" y="64.83" width="155.38" height="29.19" transform="translate(176.8 158.84) rotate(180)"/><rect class="cls-3" x="34.32" y="64.49" width="9.12" height="56.06"/><rect class="cls-3" x="52.23" y="64.49" width="9.12" height="56.46"/><rect class="cls-3" x="70.15" y="64.83" width="9.12" height="55.97"/><rect class="cls-3" x="88.06" y="64.83" width="9.12" height="56.46"/><rect class="cls-3" x="105.98" y="64.83" width="9.12" height="57.2"/></g><polygon class="cls-6" points="74.86 13.55 76.56 17.76 81.14 18.11 77.66 21.03 78.74 25.49 74.89 23.09 70.98 25.49 72.08 21.09 68.58 18.11 73.11 17.8 74.86 13.55"/><path class="cls-6" d="M88.44,17.88l1.08,2.68,2.92.23-2.22,1.86.69,2.84L88.46,24,86,25.49l.7-2.8-2.23-1.9,2.88-.2,1.12-2.7Zm-27.17,0,1.08,2.68,2.92.23-2.21,1.86.69,2.84L61.29,24,58.8,25.49l.7-2.8-2.23-1.9,2.88-.2Z"/><path class="cls-2" d="M52.25,33.41H54.6l1.63,3.83,1.64-3.83h2.35v7.15H58.46V35.34l-1.65,3.86H55.65L54,35.34v5.23H52.25Z"/><path class="cls-2" d="M66.35,39.26H63.47L63,40.57H61.16l2.65-7.15H66l2.65,7.15H66.8Zm-2.42-1.33h2l-1-2.85Z"/><path class="cls-2" d="M69.6,33.41h1.94a9.33,9.33,0,0,1,2.43.23,3.22,3.22,0,0,1,1.37.79,3.06,3.06,0,0,1,.75,1.12A4,4,0,0,1,76.34,37a4,4,0,0,1-.24,1.44,3.06,3.06,0,0,1-.75,1.12,3.24,3.24,0,0,1-1.38.79,9.34,9.34,0,0,1-2.41.23H69.6Zm1.84,1.39v4.36h.66a2.43,2.43,0,0,0,1.73-.56,2.51,2.51,0,0,0,0-3.25,2.44,2.44,0,0,0-1.73-.56Z"/><path class="cls-2" d="M77.75,33.41h5v1.39H79.59v1.33h2.95v1.39H79.59v1.64h3.24v1.39H77.75Z"/><path class="cls-2" d="M87.52,33.42h1.84v7.15H87.52Z"/><path class="cls-2" d="M91.17,33.42h2.06l2.6,4.91V33.42h1.75v7.15H95.52l-2.6-4.91v4.91H91.17Z"/><path class="cls-2" d="M52.25,43.81h3.86v9a4.46,4.46,0,0,0,.61,2.65,2.87,2.87,0,0,0,4,0,4.46,4.46,0,0,0,.61-2.65v-9h3.86v9a6.33,6.33,0,0,1-1.59,4.73,6.72,6.72,0,0,1-4.86,1.55,6.7,6.7,0,0,1-4.85-1.55,6.33,6.33,0,0,1-1.59-4.73Z"/><path class="cls-2" d="M79.32,44.28v3.17a13.74,13.74,0,0,0-2.4-.83,9.54,9.54,0,0,0-2.21-.28,4.23,4.23,0,0,0-2,.38A1.27,1.27,0,0,0,72,47.9a1.11,1.11,0,0,0,.45.94,4.31,4.31,0,0,0,1.62.58l1.64.33a7.09,7.09,0,0,1,3.54,1.52,3.86,3.86,0,0,1,1.05,2.9,4.49,4.49,0,0,1-1.47,3.68,7,7,0,0,1-4.48,1.21,15.4,15.4,0,0,1-2.86-.27,17.85,17.85,0,0,1-2.87-.8V54.73a14.5,14.5,0,0,0,2.77,1.15,9.29,9.29,0,0,0,2.58.39,3.66,3.66,0,0,0,1.93-.42,1.45,1.45,0,0,0,.22-2.28,4.63,4.63,0,0,0-1.82-.68l-1.49-.33A6.43,6.43,0,0,1,69.54,51a3.86,3.86,0,0,1-1-2.84,4.22,4.22,0,0,1,1.44-3.44,6.32,6.32,0,0,1,4.15-1.2,18,18,0,0,1,2.54.19A23.22,23.22,0,0,1,79.32,44.28Z"/><path class="cls-2" d="M92.76,56h-6l-1,2.73H81.9l5.54-15H92l5.54,15H93.7Zm-5.07-2.78h4.1l-2-6Z"/></g></g></svg>