<svg xmlns="http://www.w3.org/2000/svg" viewBox="0 0 575.3 117.53"><defs><style>.cls-1{fill:#da2128;}</style></defs><title>Asset 15</title><g id="Layer_2" data-name="Layer 2"><g id="Layer_1-2" data-name="Layer 1"><path class="cls-1" d="M78.52,116.68,100,1.23h29.15l6.74,93.19a24.09,24.09,0,0,0,1.79-3.73C139.94,80.8,142.45,71,144.13,61a62.79,62.79,0,0,0,.26-16.22c-1.24-12.91-3-25.78-4.5-38.66a45,45,0,0,1,0-4.81h22.76l3.14,40.16,1.36.13c.54-2.89,1.14-5.78,1.59-8.68,1.44-9.2,2.87-18.4,4.2-27.62.44-3.08,1.6-4.66,5.09-4.46,5.28.29,10.59.08,16.67.08C193,8.75,191.5,16,189.95,23.2c-2.1,9.75-4.85,19.41-6.12,29.27C183,58.59,184.31,65,185,71.28c1.64,15,3.49,30,5.28,45.32H166.79L164.3,66.45l-1.48-.12-8.37,50.24H114.91V95c-.87-.59-1.12-.91-1.4-.93-9-.88-9.11-.89-10.61,7.8-.85,4.89-1.45,9.81-2.18,14.81ZM113.78,75V30.59l-1.7-.08L106.33,75Z"/><path class="cls-1" d="M57.11,50.21q-1.86,10.1-3.73,20.19c-2.66,14.4-5.24,28.81-8.13,43.16-.26,1.3-2.37,2.92-3.82,3.15-3.05.48-6.23.15-9.83.15l-5-66.43-1.39,0-3.85,66.13H0L6.56,1.33H35.89l4.66,57.61,1.27.19c.6-2.38,1.3-4.73,1.78-7.14,3.09-15.67,6.18-31.33,9.15-47C53.3,2.08,54.43.73,57.64.8c8.12.2,16.24.07,25.27.07L76.2,116.44H54.85l3.86-66.09Z"/><path class="cls-1" d="M444.53,116.6H423.35L427,50.41l-1.49-.17L413.12,116.6H400l-4.91-66.11-1.45.05-3.85,66.09H368.42l6.53-115.4h29.3l4.68,57.69,1.53.15L422,1.23h29.3Z"/><path class="cls-1" d="M260.06,1.19l4.69,57.73,1.42.18c1.13-5.33,2.33-10.65,3.38-16,2.51-12.72,5-25.43,7.37-38.17C277.46,2,278.63.72,281.81.8c8.14.2,16.29.07,25.28.07l-6.7,115.62H279.17l3.64-65.91-1.12-.33a37.48,37.48,0,0,0-1.22,4.05c-3.55,19.12-7.16,38.23-10.48,57.38-.7,4.06-2.16,5.85-6.41,5.23-2.4-.35-4.9-.06-7.84-.06L251,50.54h-1.41l-4,66H224.23L230.74,1.19Z"/><path class="cls-1" d="M313.37,1.18h22.94c0,4.41.2,8.53,0,12.62-1.47,25.27-3,50.53-4.58,75.79-.08,1.33-.08,2.66-.11,4-.05,2.72.58,5.66,3.72,5.23,1.64-.23,3.93-3,4.18-4.81.84-6.08.89-12.27,1.25-18.42,1.43-24.59,2.86-49.17,4.32-74.24h23.28c0,3.36.17,6.79,0,10.2q-2.42,43.14-5,86.26c-.13,2.15-.54,4.29-.87,6.43-1.15,7.44-4.75,11.94-12.13,12.42a235.32,235.32,0,0,1-31.38,0c-8-.55-11.4-4.9-11.17-13.18.46-16.64,1.38-33.26,2.26-49.88.83-15.63,1.85-31.25,2.8-46.87C313,4.93,313.18,3.15,313.37,1.18Z"/><path d="M573.67,67.63c-.82,12.2-1.22,24-2.52,35.73-1,9.06-4.78,12.92-13.82,13.61A191.12,191.12,0,0,1,528,117c-9-.71-12.73-5.17-12.49-14.26.48-18,1.36-35.93,2.28-53.88.62-12.12,1.25-24.26,2.51-36.33.8-7.64,4.21-11.34,11.82-11.88A230.19,230.19,0,0,1,564.41.53c7.89.55,10.88,5,10.89,12.79,0,8.62,0,17.25,0,26.24H550.56c0-3.18,0-6.42,0-9.66,0-1.83.3-3.65.35-5.48.07-2.53.29-5.37-3.27-5.62s-3.8,2.55-4,5.11q-.61,10.22-1.11,20.45Q541.42,68,540.29,91.73c0,.83-.34,1.84,0,2.46a44.65,44.65,0,0,0,3.15,4.32c1.27-1.42,3.5-2.73,3.66-4.27.74-7.11.91-14.28,1.29-21.43.09-1.62.17-3.25.27-5.18Z"/><path d="M459.77,1c14.9,0,29.19-.53,43.42.2,8.52.44,12.37,5.39,12.13,14.13C514.9,31,514.18,46.61,513,62.2c-.7,9.52-5,13.57-14.51,14.82-5.73.75-11.53.9-17.75,1.35l-2.07,38.38H453.93Zm22,57.12c5.22,1.72,7,.78,7.35-4.23.6-9.8,1-19.61,1.41-29.41.2-5.26-1-6-6.88-4.58Z"/><path class="cls-1" d="M201,1.16h23.71l-6.57,115.35H194.44Z"/></g></g></svg>