<svg xmlns="http://www.w3.org/2000/svg" viewBox="0 0 9.1 15.94"><title>play-black</title><g id="Layer_2" data-name="Layer 2"><g id="Layer_1-2" data-name="Layer 1"><path d="M0,11.39a1.14,1.14,0,0,0,2.28,0,1.14,1.14,0,1,0-2.28,0Z"/><path d="M4.55,3.42A1.14,1.14,0,1,0,5.69,4.55,1.13,1.13,0,0,0,4.55,3.42Z"/><path d="M6.83,8A1.14,1.14,0,1,0,8,6.83,1.14,1.14,0,0,0,6.83,8Z"/><path d="M0,1.14A1.14,1.14,0,1,0,1.13,0,1.13,1.13,0,0,0,0,1.14Z"/><circle cx="4.55" cy="7.97" r="1.14" transform="translate(-0.03 0.02) rotate(-0.22)"/><path d="M4.55,12.52a1.14,1.14,0,1,0-1.14-1.13A1.14,1.14,0,0,0,4.55,12.52Z"/><path d="M0,14.81a1.14,1.14,0,1,0,1.12-1.14A1.13,1.13,0,0,0,0,14.81Z"/><path d="M0,8A1.14,1.14,0,1,0,1.13,6.83,1.14,1.14,0,0,0,0,8Z"/><path d="M0,4.56A1.14,1.14,0,1,0,1.13,3.42,1.14,1.14,0,0,0,0,4.56Z"/></g></g></svg>