<svg xmlns="http://www.w3.org/2000/svg" viewBox="0 0 13.17 24.45"><defs><style>.cls-1{fill:#09f;}</style></defs><title>right-arrow-blue</title><g id="Layer_2" data-name="Layer 2"><g id="Layer_1-2" data-name="Layer 1"><path class="cls-1" d="M4.69,17.87a.93.93,0,1,1-1.87,0,.93.93,0,0,1,1.87,0Z"/><path class="cls-1" d="M4.69,6.57a.94.94,0,0,1-.93.94.94.94,0,1,1,0-1.87A.94.94,0,0,1,4.69,6.57Z"/><circle class="cls-1" cx="9.41" cy="9.4" r="0.93" transform="translate(-0.02 18.78) rotate(-89.82)"/><circle class="cls-1" cx="9.41" cy="15.05" r="0.93" transform="translate(-5.67 24.41) rotate(-89.82)"/><ellipse class="cls-1" cx="0.94" cy="0.93" rx="0.94" ry="0.93" transform="translate(-0.01 0.01) rotate(-0.74)"/><ellipse class="cls-1" cx="0.94" cy="20.7" rx="0.94" ry="0.93" transform="translate(-0.15 0.01) rotate(-0.42)"/><ellipse class="cls-1" cx="3.76" cy="20.7" rx="0.93" ry="0.93" transform="matrix(1, 0, 0, 1, -0.09, 0.02)"/><ellipse class="cls-1" cx="0.94" cy="23.52" rx="0.93" ry="0.94" transform="translate(-22.6 24) rotate(-88.9)"/><ellipse class="cls-1" cx="0.94" cy="3.75" rx="0.94" ry="0.93" transform="translate(-0.02 0.01) rotate(-0.38)"/><ellipse class="cls-1" cx="3.76" cy="3.75" rx="0.93" ry="0.93" transform="translate(-0.04 7.46) rotate(-89.24)"/><ellipse class="cls-1" cx="6.58" cy="9.4" rx="0.93" ry="0.93" transform="translate(-0.05 0.03) rotate(-0.28)"/><ellipse class="cls-1" cx="12.23" cy="12.22" rx="0.94" ry="0.93" transform="translate(-0.18 0.18) rotate(-0.84)"/><ellipse class="cls-1" cx="6.58" cy="17.87" rx="0.93" ry="0.94" transform="translate(-0.28 0.11) rotate(-0.9)"/><ellipse class="cls-1" cx="6.58" cy="6.58" rx="0.94" ry="0.93" transform="translate(-0.08 13.08) rotate(-89.29)"/><ellipse class="cls-1" cx="9.41" cy="12.22" rx="0.93" ry="0.93" transform="translate(-2.93 21.48) rotate(-89.29)"/><path class="cls-1" d="M5.66,15a.93.93,0,1,1,.91,1A.92.92,0,0,1,5.66,15Z"/></g></g></svg>