<svg xmlns="http://www.w3.org/2000/svg" viewBox="0 0 11.19 20.78"><title>right-arrow-black</title><g id="Layer_2" data-name="Layer 2"><g id="Layer_1-2" data-name="Layer 1"><path d="M4,15.19a.79.79,0,1,1-1.59,0,.79.79,0,0,1,1.59,0Z"/><path d="M4,5.59a.8.8,0,0,1-.79.8.8.8,0,1,1,0-1.59A.8.8,0,0,1,4,5.59Z"/><circle cx="8" cy="7.99" r="0.79" transform="translate(-0.02 15.96) rotate(-89.82)"/><circle cx="8" cy="12.79" r="0.79" transform="translate(-4.82 20.75) rotate(-89.82)"/><ellipse cx="0.8" cy="0.79" rx="0.8" ry="0.79" transform="translate(-0.01 0.01) rotate(-0.74)"/><ellipse cx="0.8" cy="17.59" rx="0.8" ry="0.79" transform="translate(-0.13 0.01) rotate(-0.42)"/><ellipse cx="3.19" cy="17.59" rx="0.79" ry="0.79" transform="translate(-0.07 0.01) rotate(-0.24)"/><ellipse cx="0.8" cy="19.99" rx="0.79" ry="0.8" transform="translate(-19.21 20.4) rotate(-88.9)"/><ellipse cx="0.8" cy="3.19" rx="0.8" ry="0.79" transform="translate(-0.02 0.01) rotate(-0.38)"/><ellipse cx="3.19" cy="3.19" rx="0.79" ry="0.79" transform="translate(-0.04 6.34) rotate(-89.24)"/><ellipse cx="5.59" cy="7.99" rx="0.79" ry="0.79" transform="translate(-0.04 0.03) rotate(-0.28)"/><ellipse cx="10.39" cy="10.39" rx="0.8" ry="0.79" transform="translate(-0.15 0.15) rotate(-0.84)"/><ellipse cx="5.59" cy="15.19" rx="0.79" ry="0.8" transform="translate(-0.24 0.09) rotate(-0.9)"/><ellipse cx="5.59" cy="5.59" rx="0.8" ry="0.79" transform="translate(-0.06 11.12) rotate(-89.29)"/><ellipse cx="8" cy="10.39" rx="0.79" ry="0.79" transform="translate(-2.49 18.26) rotate(-89.29)"/><path d="M4.81,12.75a.79.79,0,1,1,.78.83A.78.78,0,0,1,4.81,12.75Z"/></g></g></svg>