<svg xmlns="http://www.w3.org/2000/svg" viewBox="0 0 236.28 47.99"><defs><style>.cls-1{fill:#fff;}</style></defs><title>wired</title><g id="Layer_2" data-name="Layer 2"><g id="Layer_1-2" data-name="Layer 1"><path d="M0,0H46.9V47.95H0ZM23.14,16.59h.58C25.08,23,26.47,29.4,27.79,35.81c1.08,5.24,1.19,5.33,6.62,5,1.61-.09,2.53-.6,2.88-2.34,2-10.28,4.13-20.55,6.24-31h-6L33.18,33.13C31,25.53,29.3,18,27.84,10.33c-.46-2.41-1.57-3.06-3.83-3s-4.09,0-4.63,3C18.2,16.92,16.71,23.48,15.32,30c-.24,1.11-.61,2.2-.91,3.3l-.35-.08L9.76,7.57H3.31c2,9.93,3.95,19.65,5.95,29.35.82,4,.88,3.94,5,3.91.49,0,1,0,1.48,0a2.36,2.36,0,0,0,2.72-2.2c.55-3,1.25-5.93,1.88-8.9Q21.76,23.15,23.14,16.59Z"/><path d="M94.38,0h46.86V48H94.38Zm32.16,25.28c4.64-1.15,5.13-4.63,5.19-8.33a23.57,23.57,0,0,0-.23-3.44c-.6-4.49-2.44-6.13-7-6.16-5.92,0-11.84,0-17.75,0a16.19,16.19,0,0,0-1.79.19V40.46h6.67V27.64c3.39,0,6.5,0,9.62,0,2.89,0,3.6.76,3.75,3.64.17,3.08.37,6.16.57,9.28h6.24c-.13-2.94-.32-5.72-.37-8.5C131.34,28.76,130.56,26,126.53,25.32Z"/><path d="M188.7,0h47.58V48H188.7Zm10.64,7.74V40.28c6.88,0,13.6.26,20.29-.1,3.63-.2,6.11-2.7,6.95-6.38a43.49,43.49,0,0,0,0-19.27c-.89-4-3.44-6.51-7.47-6.68C212.61,7.57,206.06,7.77,199.34,7.77Z"/><path d="M172.25,34.81V29.41h5.89V40.75H150.21V35.07l4.18-.21V13.22l-4.23-.37V7.44h27.58V18H172V13.21H161.14v7.37h8.53V26.2h-8.52v8.6Z"/><path d="M81.86,13H74.12V34.89h7.81v5.81H59.47V35h7.62V13h-7.7V7.44H81.86Z"/><path class="cls-1" d="M23.14,16.59q-1.39,6.56-2.78,13.12c-.63,3-1.33,5.92-1.88,8.9a2.36,2.36,0,0,1-2.72,2.2c-.49,0-1,0-1.48,0-4.13,0-4.2,0-5-3.91-2-9.7-3.94-19.42-5.95-29.35H9.76l4.29,25.69.35.08c.31-1.1.68-2.18.91-3.3,1.39-6.57,2.88-13.13,4.06-19.73.53-3,2.36-2.94,4.63-3s3.37.6,3.83,3C29.3,18,31,25.53,33.18,33.13L37.55,7.51h6c-2.11,10.42-4.22,20.69-6.24,31-.34,1.74-1.27,2.24-2.88,2.34-5.43.32-5.54.24-6.62-5C26.47,29.4,25.08,23,23.72,16.6Z"/><path class="cls-1" d="M126.53,25.32c4,.71,4.81,3.44,4.87,6.74.05,2.78.24,5.56.37,8.5h-6.24c-.19-3.12-.4-6.2-.57-9.28-.15-2.87-.86-3.61-3.75-3.64-3.11,0-6.22,0-9.62,0V40.46h-6.67V7.58a16.19,16.19,0,0,1,1.79-.19c5.92,0,11.84,0,17.75,0,4.58,0,6.42,1.67,7,6.16a23.57,23.57,0,0,1,.23,3.44C131.67,20.69,131.17,24.17,126.53,25.32Zm-14.92-3c3.9,0,7.66.08,11.41-.07a2.51,2.51,0,0,0,1.87-1.51A26.86,26.86,0,0,0,125,14.7a2.43,2.43,0,0,0-1.74-1.59c-3.83-.15-7.67-.07-11.61-.07Z"/><path class="cls-1" d="M199.34,7.77c6.71,0,13.27-.2,19.8.07,4,.17,6.58,2.69,7.47,6.68a43.49,43.49,0,0,1,0,19.27c-.83,3.68-3.31,6.18-6.95,6.38-6.69.37-13.41.1-20.29.1ZM206,13V35.06h10.44c2.55,0,4.18-1.29,4.26-3.78.15-4.9.12-9.81,0-14.7C220.59,14.28,219,13,216.74,13,213.22,12.92,209.71,13,206,13Z"/><path d="M111.61,22.35V13c3.94,0,7.78-.07,11.61.07A2.43,2.43,0,0,1,125,14.7a26.86,26.86,0,0,1-.07,6.07A2.51,2.51,0,0,1,123,22.28C119.27,22.43,115.51,22.35,111.61,22.35Z"/><path d="M206,13c3.7,0,7.21-.05,10.73,0,2.28,0,3.85,1.29,3.93,3.58.16,4.9.19,9.81,0,14.7-.08,2.49-1.7,3.79-4.26,3.78H206Z"/></g></g></svg>