<svg id="Layer_1" data-name="Layer 1" xmlns="http://www.w3.org/2000/svg" viewBox="0 0 101.67 31.67"><defs><style>.cls-1,.cls-2{fill:#010101;}.cls-2{font-size:3px;font-family:BitstreamVeraSans-Roman, Bitstream Vera Sans;}</style></defs><title>Artboard 1</title><path class="cls-1" d="M9.73,10.84H13.6L17.93,16l3.91-4.73.38-.42h3.87l-6.22,7.48,6.22,7.51H22.22l-4.33-5.15-4.25,5.15H9.73v0l6.2-7.44v0Z"/><path class="cls-1" d="M38.91,3.2h3V26.08h-3v-1.5a7.69,7.69,0,0,1-4.51,1.5h-.16A7.6,7.6,0,0,1,28,22.81a7.92,7.92,0,0,1-1.33-4.37A7.63,7.63,0,0,1,30,12.18a7.88,7.88,0,0,1,4.43-1.34,7.48,7.48,0,0,1,4.47,1.5h0ZM29.74,18.47a4.59,4.59,0,0,0,8.44,2.48,4.5,4.5,0,0,0,.73-2.37v-.23a4.49,4.49,0,0,0-2-3.66,4.61,4.61,0,0,0-2.63-.81,4.56,4.56,0,0,0-3.77,2.07A4.65,4.65,0,0,0,29.74,18.47Z"/><path class="cls-1" d="M65.82,10.84h8.66v3H65.82q-1.22,0-1.51.4a2.05,2.05,0,0,0-.42,1.18,1.32,1.32,0,0,0,.92,1.34l.55.1h4q3.64,0,4.75,2.78a5.49,5.49,0,0,1,.29,1.74,4.16,4.16,0,0,1-2.46,4,4.49,4.49,0,0,1-1.87.46H61v-3h9A1.39,1.39,0,0,0,71.33,22l.1-.63q0-1.51-1.83-1.51H65.27a4.61,4.61,0,0,1-3.15-1.31,4.4,4.4,0,0,1-1.22-3.15,4.87,4.87,0,0,1,1.18-3.14A4.63,4.63,0,0,1,65.82,10.84Z"/><path class="cls-1" d="M76.29,3.66h3V16.28h0l6.42-5.44h4.6v0l-1.55,1.28-7.24,6.19,8.75,7.48H85.7l-6.43-5.44v5.44h-3Z"/><path class="cls-1" d="M59.09,18.46a7.76,7.76,0,0,0-1.8-4.92A7.64,7.64,0,0,0,45.07,22.7h0c.15.22.3.44.47.66l0,0,.11.11A7.61,7.61,0,0,0,50,26a7.74,7.74,0,0,0,1.36.13h.08l.61,0h0a7.3,7.3,0,0,0,2-.42h0l.55-.23.13-.06.4-.21.36-.22.16-.1a8.66,8.66,0,0,0,.73-.53l.24-.24.19-.17v0a8.37,8.37,0,0,0,1.4-1.9H54.35a4.63,4.63,0,0,1-.87.59,4.46,4.46,0,0,1-2,.49,4.8,4.8,0,0,1-1.67-.32l-.4-.17a5.38,5.38,0,0,1-.7-.45L48.5,22a4.33,4.33,0,0,1-1.38-2H58.93A9.56,9.56,0,0,0,59.09,18.46Zm-12-1.5.3-.74a4.64,4.64,0,0,1,4-2.34,5.11,5.11,0,0,1,2.27.57A4.71,4.71,0,0,1,55.74,17Z"/><text class="cls-2" transform="translate(90.92 13.13)">TM</text></svg>